<svg viewBox="0 0 24 24" fill="none" stroke="currentColor" stroke-width="2" stroke-linecap="round" stroke-linejoin="round">
  <circle cx="12" cy="12" r="12" fill="#eaefff"/>
  <circle cx="12" cy="12" r="4"/>
  <path d="M21.5 12c0-.82-1.13-1.52-2.51-1.78a8.21 8.21 0 00-1.49-3.55c.66-1.01.65-2.19-.06-2.83l-2.12-2.12c-.63-.7-1.81-.71-2.82-.05a8.24 8.24 0 00-3.57-1.48C5.5 2.63 4.82 1.5 4 1.5S2.5 2.63 2.5 4c0 .82 1.13 1.52 2.5 1.78a8.24 8.24 0 001.5 3.57c-.65 1.01-.63 2.18.04 2.82l2.13 2.13c.64.7 1.82.71 2.83.03a8.24 8.24 0 003.56 1.48c1.38.26 2.1 1.39 2.1 2.61z"/>
</svg>
